<svg id="aa7bae02-e79e-4d6b-a496-aba15f39787c" xmlns="http://www.w3.org/2000/svg" viewBox="0 0 853.02 617.34"><defs><style>.cls-1{fill:#7b7b7c;opacity:0.08;}.cls-1,.cls-13,.cls-15,.cls-2,.cls-4,.cls-5{isolation:isolate;}.cls-2,.cls-3,.cls-4,.cls-5{fill:#666;}.cls-2{opacity:0.2;}.cls-4{opacity:0.4;}.cls-5{opacity:0.7;}.cls-6{fill:#767d9f;}.cls-7{fill:#cea5ae;}.cls-8{fill:#5c5c77;}.cls-9{fill:#504f60;}.cls-10{fill:#9c9ca1;}.cls-11{fill:#ae6e79;}.cls-12{fill:#c69ba6;}.cls-13,.cls-15{opacity:0.1;}.cls-14{fill:#fff;}.cls-15{stroke:#4c4981;stroke-miterlimit:10;}.cls-16{fill:#444053;}</style></defs><path class="cls-1" d="M853,396.54a240.4,240.4,0,0,1-5.11,49.6,216.28,216.28,0,0,1-14.37,44.28c0,32-10.31,61.29-27.33,83.61a113.6,113.6,0,0,1-34.49,30.39,97.9,97.9,0,0,1-48.26,12.8H161.93c-30,0-57.82-10.86-80.64-29.36A149,149,0,0,1,62.78,570a164.18,164.18,0,0,1-27.55-45,181.28,181.28,0,0,1-13.52-69.24C7.48,426.39-.06,392.09,0,357.05c0-36.8,8.13-71,22.11-99.48q2.61-5.35,5.51-10.43c1.27-2.23,2.57-4.41,3.92-6.55A157.82,157.82,0,0,1,57,209.34c.1-.11.21-.2.31-.3l.83-.77A127.38,127.38,0,0,1,78.7,192.76q4.06-2.44,8.23-4.49,2.43-1.22,4.91-2.29,2.93-1.26,5.88-2.34,3.45-1.26,7-2.26c1.3-.37,2.61-.72,3.93-1,2.64-.65,5.3-1.18,8-1.61l.76-.11c2.13-.32,4.24-.57,6.37-.75,1-.08,2-.15,3-.2,1.33-.07,2.66-.11,4-.13H132c2.13,0,4.23.08,6.32.23.45,0,.91.05,1.36.09l.85-1.9h0c1-2.29,2.06-4.55,3.13-6.8q1.29-2.7,2.62-5.37c1.14-2.26,2.29-4.51,3.49-6.73q3.33-6.28,7-12.38l.62-1a.08.08,0,0,0,0,0q2.06-3.42,4.18-6.76l0-.06q6.7-10.45,14.13-20.29l.21-.26q1.89-2.49,3.85-4.94C233.64,43.63,316,.35,408.41.35A290.1,290.1,0,0,1,601,73.42c19.55-14.83,41.63-22.62,64.09-22.59,72.87,0,132,80.37,132,179.51q0,9.41-.74,18.78C832,283,853.14,338,853,396.54Z" transform="translate(0 -0.35)"/><path class="cls-2" d="M187.08,111.33v25.51H161.57v0q6.7-10.45,14.13-20.29l.21-.26q1.89-2.49,3.85-4.94Z" transform="translate(0 -0.35)"/><rect class="cls-3" x="196.44" y="110.98" width="25.51" height="25.51"/><rect class="cls-2" x="231.3" y="110.98" width="25.51" height="25.51"/><rect class="cls-2" x="266.17" y="110.98" width="25.51" height="25.51"/><rect class="cls-2" x="301.03" y="110.98" width="25.51" height="25.51"/><rect class="cls-3" x="335.9" y="110.98" width="25.51" height="25.51"/><rect class="cls-2" x="370.77" y="110.98" width="25.51" height="25.51"/><rect class="cls-2" x="405.63" y="110.98" width="25.51" height="25.51"/><rect class="cls-2" x="440.5" y="110.98" width="25.51" height="25.51"/><rect class="cls-2" x="475.37" y="110.98" width="25.51" height="25.51"/><rect class="cls-2" x="510.23" y="110.98" width="25.51" height="25.51"/><rect class="cls-2" x="545.1" y="110.98" width="25.51" height="25.51"/><rect class="cls-3" x="579.96" y="110.98" width="25.51" height="25.51"/><rect class="cls-3" x="614.83" y="110.98" width="25.51" height="25.51"/><rect class="cls-2" x="649.7" y="110.98" width="25.51" height="25.51"/><rect class="cls-2" x="684.56" y="110.98" width="25.51" height="25.51"/><rect class="cls-3" x="719.43" y="110.98" width="25.51" height="25.51"/><rect class="cls-4" x="161.57" y="143.29" width="25.51" height="25.51"/><rect class="cls-3" x="196.44" y="143.29" width="25.51" height="25.51"/><rect class="cls-4" x="231.3" y="143.29" width="25.51" height="25.51"/><rect class="cls-2" x="266.17" y="143.29" width="25.51" height="25.51"/><rect class="cls-4" x="301.03" y="143.29" width="25.51" height="25.51"/><rect class="cls-3" x="335.9" y="143.29" width="25.51" height="25.51"/><rect class="cls-4" x="370.77" y="143.29" width="25.51" height="25.51"/><rect class="cls-4" x="405.63" y="143.29" width="25.51" height="25.51"/><rect class="cls-2" x="440.5" y="143.29" width="25.51" height="25.51"/><rect class="cls-4" x="475.37" y="143.29" width="25.51" height="25.51"/><rect class="cls-4" x="510.23" y="143.29" width="25.51" height="25.51"/><rect class="cls-2" x="545.1" y="143.29" width="25.51" height="25.51"/><rect class="cls-2" x="579.96" y="143.29" width="25.51" height="25.51"/><rect class="cls-4" x="614.83" y="143.29" width="25.51" height="25.51"/><rect class="cls-2" x="649.7" y="143.29" width="25.51" height="25.51"/><rect class="cls-3" x="684.56" y="143.29" width="25.51" height="25.51"/><rect class="cls-3" x="719.43" y="143.29" width="25.51" height="25.51"/><path class="cls-5" d="M117.35,178.63v22.84H91.84V186q2.93-1.26,5.88-2.34,3.45-1.26,7-2.26c1.3-.37,2.61-.72,3.93-1,2.64-.65,5.3-1.18,8-1.61Z" transform="translate(0 -0.35)"/><path class="cls-2" d="M152.21,176v25.51H126.7V177.68c1.33-.07,2.66-.11,4-.13H132c2.13,0,4.23.08,6.32.23.45,0,.91.05,1.36.09l.85-1.9h11.71Z" transform="translate(0 -0.35)"/><rect class="cls-4" x="161.57" y="175.61" width="25.51" height="25.51"/><rect class="cls-4" x="196.44" y="175.61" width="25.51" height="25.51"/><rect class="cls-3" x="231.3" y="175.61" width="25.51" height="25.51"/><rect class="cls-2" x="266.17" y="175.61" width="25.51" height="25.51"/><rect class="cls-4" x="301.03" y="175.61" width="25.51" height="25.51"/><rect class="cls-3" x="335.9" y="175.61" width="25.51" height="25.51"/><rect class="cls-2" x="370.77" y="175.61" width="25.51" height="25.51"/><rect class="cls-4" x="405.63" y="175.61" width="25.51" height="25.51"/><rect class="cls-2" x="440.5" y="175.61" width="25.51" height="25.51"/><rect class="cls-3" x="475.37" y="175.61" width="25.51" height="25.51"/><rect class="cls-2" x="510.23" y="175.61" width="25.51" height="25.51"/><rect class="cls-5" x="545.1" y="175.61" width="25.51" height="25.51"/><rect class="cls-5" x="579.96" y="175.61" width="25.51" height="25.51"/><rect class="cls-4" x="614.83" y="175.61" width="25.51" height="25.51"/><rect class="cls-2" x="649.7" y="175.61" width="25.51" height="25.51"/><rect class="cls-3" x="684.56" y="175.61" width="25.51" height="25.51"/><rect class="cls-3" x="719.43" y="175.61" width="25.51" height="25.51"/><rect class="cls-3" x="754.29" y="175.61" width="25.51" height="25.51"/><rect class="cls-5" x="56.97" y="207.92" width="25.51" height="25.51"/><rect class="cls-5" x="91.84" y="207.92" width="25.51" height="25.51"/><rect class="cls-2" x="126.7" y="207.92" width="25.51" height="25.51"/><rect class="cls-2" x="161.57" y="207.92" width="25.51" height="25.51"/><rect class="cls-4" x="196.44" y="207.92" width="25.51" height="25.51"/><rect class="cls-4" x="231.3" y="207.92" width="25.51" height="25.51"/><rect class="cls-3" x="266.17" y="207.92" width="25.51" height="25.51"/><rect class="cls-2" x="301.03" y="207.92" width="25.51" height="25.51"/><rect class="cls-4" x="335.9" y="207.92" width="25.51" height="25.51"/><rect class="cls-4" x="370.77" y="207.92" width="25.51" height="25.51"/><rect class="cls-4" x="405.63" y="207.92" width="25.51" height="25.51"/><rect class="cls-4" x="440.5" y="207.92" width="25.51" height="25.51"/><rect class="cls-2" x="475.37" y="207.92" width="25.51" height="25.51"/><rect class="cls-2" x="510.23" y="207.92" width="25.51" height="25.51"/><rect class="cls-2" x="545.1" y="207.92" width="25.51" height="25.51"/><rect class="cls-2" x="579.96" y="207.92" width="25.51" height="25.51"/><rect class="cls-5" x="614.83" y="207.92" width="25.51" height="25.51"/><rect class="cls-5" x="649.7" y="207.92" width="25.51" height="25.51"/><rect class="cls-4" x="684.56" y="207.92" width="25.51" height="25.51"/><rect class="cls-2" x="719.43" y="207.92" width="25.51" height="25.51"/><rect class="cls-3" x="754.29" y="207.92" width="25.51" height="25.51"/><path class="cls-2" d="M47.62,240.59V266.1H22.11v-8.53q2.61-5.35,5.51-10.43c1.27-2.23,2.57-4.41,3.92-6.55Z" transform="translate(0 -0.35)"/><rect class="cls-5" x="56.97" y="240.24" width="25.51" height="25.51"/><rect class="cls-5" x="91.84" y="240.24" width="25.51" height="25.51"/><rect class="cls-2" x="126.7" y="240.24" width="25.51" height="25.51"/><rect class="cls-2" x="161.57" y="240.24" width="25.51" height="25.51"/><rect class="cls-4" x="196.44" y="240.24" width="25.51" height="25.51"/><rect class="cls-3" x="231.3" y="240.24" width="25.51" height="25.51"/><rect class="cls-2" x="266.17" y="240.24" width="25.51" height="25.51"/><rect class="cls-3" x="301.03" y="240.24" width="25.51" height="25.51"/><rect class="cls-3" x="335.9" y="240.24" width="25.51" height="25.51"/><rect class="cls-3" x="370.77" y="240.24" width="25.51" height="25.51"/><rect class="cls-2" x="405.63" y="240.24" width="25.51" height="25.51"/><rect class="cls-3" x="440.5" y="240.24" width="25.51" height="25.51"/><rect class="cls-2" x="475.37" y="240.24" width="25.51" height="25.51"/><rect class="cls-2" x="510.23" y="240.24" width="25.51" height="25.51"/><rect class="cls-2" x="545.1" y="240.24" width="25.51" height="25.51"/><rect class="cls-2" x="579.96" y="240.24" width="25.51" height="25.51"/><rect class="cls-2" x="614.83" y="240.24" width="25.51" height="25.51"/><rect class="cls-5" x="649.7" y="240.24" width="25.51" height="25.51"/><rect class="cls-2" x="684.56" y="240.24" width="25.51" height="25.51"/><rect class="cls-2" x="719.43" y="240.24" width="25.51" height="25.51"/><rect class="cls-3" x="754.29" y="240.24" width="25.51" height="25.51"/><rect class="cls-2" x="22.11" y="272.55" width="25.51" height="25.51"/><rect class="cls-2" x="56.97" y="272.55" width="25.51" height="25.51"/><rect class="cls-5" x="91.84" y="272.55" width="25.51" height="25.51"/><rect class="cls-2" x="126.7" y="272.55" width="25.51" height="25.51"/><rect class="cls-2" x="161.57" y="272.55" width="25.51" height="25.51"/><rect class="cls-2" x="196.44" y="272.55" width="25.51" height="25.51"/><rect class="cls-3" x="231.3" y="272.55" width="25.51" height="25.51"/><rect class="cls-2" x="266.17" y="272.55" width="25.51" height="25.51"/><rect class="cls-3" x="301.03" y="272.55" width="25.51" height="25.51"/><rect class="cls-3" x="335.9" y="272.55" width="25.51" height="25.51"/><rect class="cls-2" x="370.77" y="272.55" width="25.51" height="25.51"/><rect class="cls-2" x="405.63" y="272.55" width="25.51" height="25.51"/><rect class="cls-2" x="440.5" y="272.55" width="25.51" height="25.51"/><rect class="cls-2" x="475.37" y="272.55" width="25.51" height="25.51"/><rect class="cls-2" x="510.23" y="272.55" width="25.51" height="25.51"/><rect class="cls-2" x="545.1" y="272.55" width="25.51" height="25.51"/><rect class="cls-2" x="579.96" y="272.55" width="25.51" height="25.51"/><rect class="cls-2" x="614.83" y="272.55" width="25.51" height="25.51"/><rect class="cls-2" x="649.7" y="272.55" width="25.51" height="25.51"/><rect class="cls-2" x="684.56" y="272.55" width="25.51" height="25.51"/><rect class="cls-4" x="719.43" y="272.55" width="25.51" height="25.51"/><rect class="cls-3" x="754.29" y="272.55" width="25.51" height="25.51"/><rect class="cls-5" x="22.11" y="304.87" width="25.51" height="25.51"/><rect class="cls-2" x="56.97" y="304.87" width="25.51" height="25.51"/><rect class="cls-2" x="91.84" y="304.87" width="25.51" height="25.51"/><rect class="cls-2" x="126.7" y="304.87" width="25.51" height="25.51"/><rect class="cls-2" x="161.57" y="304.87" width="25.51" height="25.51"/><rect class="cls-2" x="196.44" y="304.87" width="25.51" height="25.51"/><rect class="cls-2" x="231.3" y="304.87" width="25.51" height="25.51"/><rect class="cls-3" x="266.17" y="304.87" width="25.51" height="25.51"/><rect class="cls-2" x="301.03" y="304.87" width="25.51" height="25.51"/><rect class="cls-2" x="335.9" y="304.87" width="25.51" height="25.51"/><rect class="cls-2" x="370.77" y="304.87" width="25.51" height="25.51"/><rect class="cls-3" x="405.63" y="304.87" width="25.51" height="25.51"/><rect class="cls-2" x="440.5" y="304.87" width="25.51" height="25.51"/><rect class="cls-2" x="475.37" y="304.87" width="25.51" height="25.51"/><rect class="cls-2" x="510.23" y="304.87" width="25.51" height="25.51"/><rect class="cls-2" x="545.1" y="304.87" width="25.51" height="25.51"/><rect class="cls-2" x="579.96" y="304.87" width="25.51" height="25.51"/><rect class="cls-2" x="614.83" y="304.87" width="25.51" height="25.51"/><rect class="cls-2" x="649.7" y="304.87" width="25.51" height="25.51"/><rect class="cls-2" x="684.56" y="304.87" width="25.51" height="25.51"/><rect class="cls-2" x="719.43" y="304.87" width="25.51" height="25.51"/><rect class="cls-3" x="754.29" y="304.87" width="25.51" height="25.51"/><circle class="cls-6" cx="511.61" cy="363.85" r="34.87"/><path class="cls-7" d="M509.8,319.84q5.22,22.77,8.86,45.9c.73,4.58,1.38,9.41-.28,13.74-1.39,3.61-4.22,6.43-6.44,9.59s-3.9,7.21-2.55,10.83,5.29,5.6,9.05,6.62c10.76,2.9,22.23.79,32.94-2.35a53.52,53.52,0,0,0,13.81-5.72c4.54-2.88,8.26-6.88,11.68-11,15.61-18.93,25.83-41.65,35.45-64.23a39.15,39.15,0,0,1-33.11-13.34c-3.94-4.63-6.83-11.08-4.61-16.74-6.51,3.57-14.24,3.81-21.25,6.25a74.72,74.72,0,0,0-12.5,6.15q-7.19,4.14-14.28,8.46C521.16,317.26,516.09,320.16,509.8,319.84Z" transform="translate(0 -0.35)"/><path class="cls-6" d="M582.73,346c-6.11,11.89-14.06,23.32-25.41,30.4s-26.63,9-38,2c-5.6-3.42-9.84-8.62-14.73-13s-11-8.13-17.57-7.56c-7.24.63-12.91,6.28-17.76,11.69-7.36,8.22-14.47,16.79-19.68,26.52-10,18.7-12.37,40.56-11.93,61.76s3.51,42.29,3.58,63.49c.1,26.08-4.32,51.95-8.79,77.64,41.1-5.06,82.25,6,123.44,10.19,26.36,2.71,52.92,2.65,79.42,2.58,4.66,0,9.62-.12,13.5-2.7a18.22,18.22,0,0,0,5.59-6.64c3.66-6.75,5.13-14.45,6.15-22.06,2.59-19.22,2.67-38.68,2.74-58.08.18-47,.35-94.17-5.62-140.8-1.47-11.47-3.35-23-7.75-33.73s-11.58-20.6-21.62-26.35c-6.45-3.7-21.4-10.14-29-6.41C590.76,319.12,586.82,338.06,582.73,346Z" transform="translate(0 -0.35)"/><path class="cls-8" d="M585.77,478.74c-1.55-29-7.86-59.95,5.57-85.69,3.3-6.32-8.54-14.21-4.88-20.33a92.23,92.23,0,0,0,10.06-23.93c.76-2.89,1.37-6,.65-8.85-1.33-5.29-6.56-8.44-11-11.66-4.9-3.56-7.42-14.41-9-20.28s12.57,1.2,18.26-.89c7.9-2.89,17.94-1.07,25.82,1.86,4.4,1.62,9.18,1.76,13.87,1.88,9.11.24,18.25.47,27.29-.65,4.06-.51,8.13-1.28,12.21-1.05,10.41.59,19.46,7.71,25.62,16.13s10.08,18.23,15.13,27.35c4.21,7.6,9.23,14.78,12.82,22.69,3.18,7,5.19,14.52,7.18,22l5.13,19.19a25.57,25.57,0,0,1,1.26,8.51c-.26,3.07-1.62,5.93-3,8.66a164.48,164.48,0,0,1-18.67,28.49c-10.79,13.23-23.89,25.16-30.3,41-2.5,6.17-3.89,12.73-5.16,19.27a707.62,707.62,0,0,0-10.9,79.15,174.14,174.14,0,0,0-55.52-15.21c-5.59-.58-12.8.52-18.12-1-8.9-2.53-9.88-17.58-11.23-25.46-2.16-12.55-2.59-25.32-2.67-38C586.09,507.5,586.54,493.11,585.77,478.74Z" transform="translate(0 -0.35)"/><path class="cls-8" d="M390.32,424.51c4.21,24,8.85,48.07,18,70.62-.23.22-.46.42-.69.62-.81.69-1.65,1.34-2.53,2-2.05,1.44-4.3,2.66-6,4.54a7.89,7.89,0,0,0-1.5,2.45,5.52,5.52,0,0,0,0,4.47c-4.77,2.11-10.31,1.46-15.66,1.26-4.61-.17-9.08,0-12.78,2.53-5.14,3.54-6.69,10.34-7.52,16.52q-.47,3.38-.79,6.77c-.21,2.1-.39,4.2-.52,6.32a188.61,188.61,0,0,0-.19,21q.08,1.92.21,3.84c-16.34-.39-31.23-8.91-45.32-17.19-3.22-1.89-6.54-3.88-8.63-7A15.79,15.79,0,0,1,304.09,533a11.37,11.37,0,0,1,.16-1.52,41.91,41.91,0,0,1,2.29-8.68,107.16,107.16,0,0,1,19.19-32.65c3.58-4.18,7.61-8.27,9.28-13.52.73-2.29,1-4.72,1.74-7,3.32-9.88,15.3-14.55,19.4-24.14,1-2.29,1.46-4.8,2.7-7a17.7,17.7,0,0,1,4.25-4.75c.73-.61,1.49-1.2,2.24-1.79q10.55-8.26,20.31-17.45c1.21-1.14,2.41-2.3,3.6-3.46A59.41,59.41,0,0,0,390.32,424.51Z" transform="translate(0 -0.35)"/><path class="cls-8" d="M491.09,353.53c-1.44,1.52-3,3-4.53,4.37l-.41.37-1.62,1.5a39,39,0,0,0-7.55,8.79l-.17.28c-5.1,9.13-3.21,20.37-1.79,30.74a262.09,262.09,0,0,1,2.37,39c-.26,18-2.38,35.88-2.42,53.86q0,6.12.27,12.23c.29,6.63.79,13.25,1.39,19.87.65,7.26,1.43,14.51,2.16,21.76.58,5.61,1.13,11.21,1.59,16.81.23,2.9.45,5.79.63,8.69.21,3.4.38,6.81.48,10.21h0c.07,2.16.11,4.31.11,6.47v3.67q0,3.51-.19,7c-.13,3-.34,6-.61,9-.31,3.27-.86,6.84-3.16,9.14-.14.14-.29.27-.44.4l-3.24-.4a332,332,0,0,0-67.3-1.2c.49-3.38.94-6.75,1.38-10.14.2-1.6.4-3.21.59-4.82q.33-2.76.63-5.52.35-3,.64-6,.78-7.74,1.37-15.47.87-11.29,1.32-22.62.23-5.41.34-10.83.17-6.72.16-13.45,0-6.54-.11-13.1c0-1.44-.06-2.88-.18-4.31a27.35,27.35,0,0,0-.53-3.83,49.66,49.66,0,0,0-3-8.48c-.22-.52-.43-1-.64-1.55-.12-.27-.23-.55-.34-.82,5.76-5.13,9.86-12,13.8-18.76,6.39-10.89,12.93-22.26,14-34.84s-5.18-26.71-17.2-30.55c-3.27-1-6.73-1.28-10.1-1.87-3.18-.56-9.81-1.83-13.49-4.11q-3,3.08-6,6.05a22.07,22.07,0,0,1,2.17-8.71l1.42.07a2.62,2.62,0,0,1-.16-1c0-1.07.74-2.28,2.32-3.62,4.71-4,12.12-4.89,15.09-10.3,1.24-2.25,1.45-4.93,2.45-7.29,2.87-6.73,11.11-9.21,16.07-14.59s6.2-13,10.21-19a28.54,28.54,0,0,1,12-10c.4-.19.81-.38,1.22-.55,8.3-3.55,18.16-4.36,26.76-4.34,3.34,0,12,.1,16.24,1.79a5.19,5.19,0,0,1,1.85,1.13C501.46,339.58,494.43,350,491.09,353.53Z" transform="translate(0 -0.35)"/><path class="cls-8" d="M391.81,401.66a60.84,60.84,0,0,1,46.74,4.87c7.2,4,13.66,9.58,17.62,16.78,5.95,10.8,5.69,23.82,5.27,36.15-.21,6.17-.48,12.56-3.2,18.1-3.15,6.41-9.09,10.81-15.15,14.41a42.43,42.43,0,0,1-12.32,5.33c-6.72,1.46-13.7.22-20.47-1-7.36-1.36-15.26-3-20.37-8.48-3-3.18-4.64-7.31-6.26-11.35q-3.5-8.76-7-17.48c-4.05-10.11-5.42-18.52-.07-28.37,2.43-4.49,5.4-8.69,7.8-13.21C385.6,415.11,389.9,402.25,391.81,401.66Z" transform="translate(0 -0.35)"/><path class="cls-9" d="M806.21,574a113.6,113.6,0,0,1-34.49,30.39,97.9,97.9,0,0,1-48.26,12.8H161.93c-30,0-57.82-10.86-80.64-29.36A149,149,0,0,1,62.78,570a164.18,164.18,0,0,1-27.55-45l81.61-9.42H117L251.38,527l34.77,3,18.06,1.53,37.38,3.17,19.23,1.63,28,2.38,3.94.33,20.18,1.71L440.32,543l38.5,3.26L543,551.68l45.15,3.83,74.14,6.29,14.1,1.19,1.52.13,1.32.11,18.62,1.58,20.44,1.74,2.37.2Z" transform="translate(0 -0.35)"/><polygon class="cls-10" points="541.09 573.08 251.95 523.73 240.74 580.42 373.28 596.29 414.09 601.4 526.35 579.29 541.09 573.08"/><path class="cls-10" d="M391.42,598.91l144.86-27.23a5,5,0,0,1,5.94,4.93h0a5,5,0,0,1-4.09,4.93L396.66,608Z" transform="translate(0 -0.35)"/><path class="cls-11" d="M454.26,513.28c4.51-.42,9.08-1.13,13.14-3.13,5-2.49,8.89-6.78,13.52-9.94,10.18-7,23.8-7.94,35.47-3.92s21.41,12.63,28.23,22.91c4.53,6.85,7.93,15.59,4.73,23.15a30.65,30.65,0,0,1-4.12,6.44l-8.34,10.9a29,29,0,0,1-5.66,6.09c-3.12,2.27-7,3.2-10.82,3.76-10.15,1.48-20.48.64-30.71,1.32-17.57,1.17-34.73,6.83-52.34,6.64-10.12-.11-20.11-2.15-30-4.19l-43.77-9c-7.62-1.56-16.23-3.84-19.82-10.75-1.61-3.11-1.91-6.71-2.1-10.21-.52-9.64,0-20.36,6.68-27.31,6.28-6.52,16.21-8.58,23.71-13.4,9.18-5.91,12.21-4,21.89.44A120.1,120.1,0,0,0,454.26,513.28Z" transform="translate(0 -0.35)"/><path class="cls-12" d="M454.26,513.28c4.51-.42,9.08-1.13,13.14-3.13,5-2.49,8.89-6.78,13.52-9.94,10.18-7,23.8-7.94,35.47-3.92s21.41,12.63,28.23,22.91c4.53,6.85,7.93,15.59,4.73,23.15a30.65,30.65,0,0,1-4.12,6.44l-8.34,10.9a29,29,0,0,1-5.66,6.09c-3.12,2.27-7,3.2-10.82,3.76-10.15,1.48-20.48.64-30.71,1.32-17.57,1.17-34.73,6.83-52.34,6.64-10.12-.11-20.11-2.15-30-4.19l-43.77-9c-7.62-1.56-16.23-3.84-19.82-10.75-1.61-3.11-1.91-6.71-2.1-10.21-.52-9.64,0-20.36,6.68-27.31,6.28-6.52,16.21-8.58,23.71-13.4,9.18-5.91,12.21-4,21.89.44A120.1,120.1,0,0,0,454.26,513.28Z" transform="translate(0 -0.35)"/><path class="cls-7" d="M630,499.57c-12.28,4.75-24.63,9.52-37.49,12.35-21.56,4.75-44.12,4-65.51,9.43-11.3,2.88-22.53,7.52-34.14,6.58-5.19-.42-10.2-2-15.25-3.2C449.27,517.73,417,520,394,538c-7.88,6.15-14.33,13.82-20.18,22a14.72,14.72,0,0,0,5.91,21.88,86.66,86.66,0,0,0,28.38,7.57c13.13,1.16,26.32-.7,39.38-2.56,19.38-2.75,38.77-5.51,58.1-8.6,6.94-1.11,13.88-2.26,20.86-3.14,50.23-6.35,101.37,1.37,151.73-3.93,5.09-.54,10.27-1.24,14.9-3.41,11.72-5.5,17.52-20,15.1-32.74s-11.76-23.33-23-29.83c-9.42-5.47-19.58-7.68-30.07-10C645.35,493,639.41,496,630,499.57Z" transform="translate(0 -0.35)"/><path class="cls-13" d="M737.76,423.41c5.54,7.26,6.72,17,6.12,26.09s-2.76,18.08-3.08,27.21c-.44,12.52,2.58,25,2.07,37.48-.36,8.73-2.43,17.29-4.88,25.67-2.89,9.89-7.07,20.52-16.2,25.27-12.12,6.31-37.54,2.76-50.29,7.7,1.16-7.23,12.28-17.7,13.44-24.93.8-5,1.61-10.14.75-15.15-1.1-6.39-4.85-12.06-9.3-16.78-7.08-7.51-16.32-13.16-26.47-15s-35-.33-43.12,6.08c-1-6.62,17.6-13,24.14-14.43,3.26-.73,7-.32,9.61-2.39,5-3.92,1.37-11.73,1.61-18,.19-5,3.11-9.58,3.7-14.58,1-8-4.22-16.15-2.17-24,.76-2.9,2.45-5.45,3.62-8.21,3.56-8.45,2-18.09.1-27.07-1.18-5.64-2.33-12,.81-16.81,2.91-4.49,11.17,11.5,16.46,10.76,17.47-2.45,33.28-15.4,47.39-4.8,7.19,5.4,8.13,11,11,18.71C725.86,413.57,733.09,417.33,737.76,423.41Z" transform="translate(0 -0.35)"/><path class="cls-8" d="M740.76,423.41c5.54,7.26,6.72,17,6.12,26.09s-2.76,18.08-3.08,27.21c-.44,12.52,2.58,25,2.07,37.48-.36,8.73-2.43,17.29-4.88,25.67-2.89,9.89-7.07,20.52-16.2,25.27-12.12,6.31-37.54,2.76-50.29,7.7,1.16-7.23,12.28-17.7,13.44-24.93.8-5,1.61-10.14.75-15.15-1.1-6.39-4.85-12.06-9.3-16.78-7.08-7.51-16.32-13.16-26.47-15s-35-.33-43.12,6.08c-1-6.62,17.6-13,24.14-14.43,3.26-.73,7-.32,9.61-2.39,5-3.92,1.37-11.73,1.61-18,.19-5,3.11-9.58,3.7-14.58,1-8-4.22-16.15-2.17-24,.76-2.9,2.45-5.45,3.62-8.21,3.56-8.45,2-18.09.1-27.07-1.18-5.64-2.33-12,.81-16.81,2.91-4.49,8.6-6.19,13.89-6.94a68.38,68.38,0,0,1,50,12.9c7.19,5.4,8.13,11,11,18.71C728.86,413.57,736.09,417.33,740.76,423.41Z" transform="translate(0 -0.35)"/><path class="cls-10" d="M79.09,376,133.46,577a12.57,12.57,0,0,0,10.91,9.21l244.72,23.51a12.53,12.53,0,0,0,13.38-15.48L342.93,351.83a12.53,12.53,0,0,0-13.12-9.51L90.22,360.24a12.53,12.53,0,0,0-11.53,13.47A12.25,12.25,0,0,0,79.09,376Z" transform="translate(0 -0.35)"/><ellipse class="cls-14" cx="564.2" cy="387.64" rx="26.9" ry="27.25"/><path class="cls-14" d="M586.29,338.28s5.67,16.86-11.06,24L573.09,366l10.48,10.34s12.92-23.57,11.52-31.94C595.09,344.37,593.09,335.87,586.29,338.28Z" transform="translate(0 -0.35)"/><circle class="cls-3" cx="567.29" cy="388.95" r="25.94"/><path class="cls-3" d="M595.22,348.2l-4.12-6.8-6-.85c1.28-22.39-4.53-29.06-4.53-29.06l-1.35-.13-5.88-.57-11.06-11.48v-3.26c15.54,1.85,24.13,9.23,28.77,17.88C599.25,329.11,595.22,348.2,595.22,348.2Z" transform="translate(0 -0.35)"/><path class="cls-15" d="M579.27,307.24v4.12l-5.88-.57-11.06-11.48S579.44,303.14,579.27,307.24Z" transform="translate(0 -0.35)"/><path class="cls-15" d="M595.22,348.2l-4.12-6.8V314C599.25,329.11,595.22,348.2,595.22,348.2Z" transform="translate(0 -0.35)"/><ellipse class="cls-14" cx="506.2" cy="377.16" rx="14.43" ry="26.32" transform="translate(-120.76 303.28) rotate(-30)"/><path class="cls-3" d="M510.09,375c7.27,12.59,16.19,21,9.29,25s-27,2-34.27-10.6-.67-30,6.23-34S502.81,362.35,510.09,375Z" transform="translate(0 -0.35)"/><path class="cls-13" d="M574.82,284.27c0,40.23-27.53,79-67.76,79a72.85,72.85,0,0,1,0-145.7C547.29,217.61,574.82,244,574.82,284.27Z" transform="translate(0 -0.35)"/><circle class="cls-7" cx="507.06" cy="288.11" r="72.85"/><path class="cls-16" d="M500.66,256.18c8.67,3.19,13.8,12.15,21.58,17.14,11,7,25.32,5.19,37.88,1.73,7-1.91,14.32-4.24,21.21-2.12a6.16,6.16,0,0,0,3.23.46c1.5-.43,2.24-2.09,2.73-3.57,8.52-25.4,4.69-54.17-8.17-77.67-3.32-6.06-7.3-11.92-12.78-16.13-4.32-3.31-9.4-5.48-14.52-7.33a145,145,0,0,0-28.88-7.13,17.57,17.57,0,0,0-5.27-.17c-2.41.39-4.57,1.69-6.72,2.85a68.87,68.87,0,0,1-29.86,8.11c-14,.53-30-2.77-40.79,6.21-13,10.77-9.76,31.78-18.19,46.4-5.58,9.67-16.34,16.69-18.11,27.7a25.54,25.54,0,0,0,.63,10.07c4.12,16.94,20.52,30.06,38,30.37a14.51,14.51,0,0,0,7.76-1.59,17.78,17.78,0,0,0,4.09-3.89C465.93,274.06,479,248.22,500.66,256.18Z" transform="translate(0 -0.35)"/><path class="cls-13" d="M587.29,262.45c-.49,1.48-1.23,3.14-2.73,3.57a6.16,6.16,0,0,1-3.23-.46c-6.89-2.12-14.25.21-21.2,2.12-12.57,3.46-26.92,5.31-37.88-1.73-7.79-5-12.91-14-21.59-17.14-21.63-8-34.73,17.88-46.21,31.44a17.78,17.78,0,0,1-4.09,3.89,14.51,14.51,0,0,1-7.76,1.59c-17.42-.31-33.83-13.43-38-30.37-.23-1-.43-2-.58-3a.48.48,0,0,1,0,.26,25.54,25.54,0,0,0,.63,10.07c4.12,16.94,20.53,30.06,38,30.37a14.51,14.51,0,0,0,7.76-1.59,17.78,17.78,0,0,0,4.09-3.89c11.48-13.56,24.58-39.4,46.21-31.44,8.68,3.19,13.8,12.15,21.59,17.14,11,7,25.31,5.19,37.88,1.73,7-1.91,14.31-4.24,21.2-2.12a6.16,6.16,0,0,0,3.23.46c1.5-.43,2.24-2.09,2.73-3.57a90.35,90.35,0,0,0,4.48-32.26A88.59,88.59,0,0,1,587.29,262.45Z" transform="translate(0 -0.35)"/></svg>